<?xml version="1.0" encoding="iso-8859-1"?>
<!-- Generator: Adobe Illustrator 19.0.0, SVG Export Plug-In . SVG Version: 6.00 Build 0)  -->
<svg version="1.1" id="Layer_1" xmlns="http://www.w3.org/2000/svg" xmlns:xlink="http://www.w3.org/1999/xlink" x="0px" y="0px"
	 viewBox="0 0 512 512" style="enable-background:new 0 0 512 512;" xml:space="preserve">
<path style="fill:#754C24;" d="M100.326,439.385c0-8.309,3.037-15.919,8.053-21.788c-11.368,0.762-20.392,10.23-20.392,21.788
	v18.327c0,11.559,9.025,21.029,20.397,21.788c-5.017-5.869-8.058-13.478-8.058-21.788L100.326,439.385z"/>
<path style="fill:#C43333;" d="M170.65,491.885l9.939-10.041c1.101-1.112,2.601-1.737,4.166-1.737c1.565,0,3.064,0.626,4.166,1.737
	l9.939,10.041V454.41h-28.209v37.475H170.65z"/>
<path style="fill:#FFAA2A;" d="M355.991,206.086c0.896,1.744,0.818,3.723-0.012,5.345l0.014,0.007l-29.034,56.582h97.052V149.504
	h-97.055L355.991,206.086z M380.904,186.261c0-10.735,8.734-19.469,19.47-19.469c10.734,0,19.466,8.734,19.466,19.469v45.004
	c0,10.735-8.732,19.469-19.466,19.469c-10.735,0-19.47-8.733-19.47-19.469V186.261z"/>
<path style="fill:#754C24;" d="M132.164,11.722h-22.314c-12.055,0-21.862,9.808-21.862,21.863v380.337
	c5.88-5.056,13.517-8.122,21.862-8.122h22.314C132.164,405.801,132.164,11.722,132.164,11.722z"/>
<path style="fill:#808080;" d="M394.511,43.705H173.387v330.114h221.123v-94.076h-73.568l-31.779,61.933
	c-1.002,1.955-3.016,3.185-5.214,3.185c-2.198,0-4.212-1.23-5.214-3.185L211.907,211.44c-0.896-1.745-0.818-3.724,0.012-5.345
	l-0.012-0.006L278.736,75.85c1.002-1.955,3.016-3.185,5.214-3.185c2.198,0,4.212,1.23,5.214,3.185l31.778,61.933h73.569V43.705z
	 M374.818,353.729c1.091-1.09,2.604-1.723,4.138-1.723c1.547,0,3.049,0.633,4.15,1.723c1.09,1.09,1.711,2.602,1.711,4.138
	c0,1.547-0.621,3.06-1.711,4.15c-1.101,1.09-2.602,1.723-4.15,1.723c-1.534,0-3.048-0.633-4.138-1.723
	c-1.09-1.09-1.723-2.602-1.723-4.15C373.096,356.319,373.729,354.82,374.818,353.729z M193.087,362.018
	c-1.091,1.09-2.604,1.711-4.15,1.711c-1.537,0-3.049-0.621-4.138-1.711c-1.102-1.09-1.723-2.602-1.723-4.15
	c0-1.536,0.62-3.048,1.723-4.138c1.09-1.09,2.591-1.723,4.138-1.723c1.546,0,3.058,0.633,4.15,1.723
	c1.09,1.09,1.711,2.602,1.711,4.138C194.798,359.414,194.177,360.927,193.087,362.018z M193.087,63.799
	c-1.091,1.09-2.604,1.711-4.15,1.711c-1.537,0-3.049-0.621-4.138-1.711c-1.102-1.09-1.723-2.602-1.723-4.15
	c0-1.536,0.62-3.048,1.723-4.15c1.09-1.09,2.602-1.711,4.138-1.711c1.546,0,3.058,0.621,4.15,1.711
	c1.09,1.102,1.711,2.614,1.711,4.15C194.798,61.197,194.177,62.709,193.087,63.799z M383.107,63.799
	c-1.09,1.09-2.602,1.711-4.15,1.711s-3.048-0.621-4.138-1.711c-1.09-1.09-1.723-2.602-1.723-4.15s0.633-3.06,1.723-4.15
	c1.091-1.09,2.591-1.711,4.138-1.711s3.06,0.621,4.15,1.711c1.09,1.102,1.711,2.614,1.711,4.15
	C384.819,61.197,384.196,62.709,383.107,63.799z"/>
<path style="fill:#FFAA2A;" d="M143.887,405.801h280.125V279.741h-17.778v99.937c0,3.237-2.624,5.861-5.861,5.861H167.526
	c-3.238,0-5.861-2.625-5.861-5.861V37.843c0-3.237,2.623-5.861,5.861-5.861h232.846c3.238,0,5.861,2.625,5.861,5.861v99.938h17.778
	V11.722H143.887V405.801z"/>
<path style="fill:#754C24;" d="M223.709,208.762l60.24,117.398l60.24-117.395l-60.24-117.4L223.709,208.762z M289.164,134.815
	l36.57,71.271c0.896,1.744,0.818,3.723-0.012,5.345l0.013,0.007l-36.572,71.27c-1.002,1.955-3.016,3.185-5.214,3.185
	c-2.198,0-4.212-1.23-5.214-3.185l-36.57-71.27c-0.896-1.745-0.818-3.724,0.013-5.345l-0.013-0.006l36.57-71.271
	c1.002-1.955,3.016-3.185,5.214-3.185C286.148,131.631,288.162,132.86,289.164,134.815z"/>
<polygon style="fill:#FFAA2A;" points="253.966,208.762 283.95,267.194 313.933,208.763 283.95,150.329 "/>
<path style="fill:#754C24;" d="M400.373,239.01c4.271,0,7.744-3.475,7.744-7.746V186.26c0-4.272-3.475-7.746-7.744-7.746
	c-4.273,0-7.747,3.475-7.747,7.746v45.004C392.626,235.535,396.102,239.01,400.373,239.01z"/>
<path style="fill:#E6E6E6;" d="M401.531,417.523H133.912c-12.055,0-21.862,9.808-21.862,21.862l0.001,18.327
	c0,12.055,9.808,21.862,21.863,21.862h25.014V454.41h-17.448c-3.238,0-5.861-2.625-5.861-5.861s2.623-5.861,5.861-5.861h92.803
	c3.238,0,5.861,2.625,5.861,5.861s-2.623,5.861-5.861,5.861h-23.702v25.165h190.833c-0.74-1.966-1.156-4.089-1.156-6.313v-49.116
	C400.26,421.808,400.717,419.577,401.531,417.523z"/>
<path d="M278.736,134.815l-36.57,71.271l0.013,0.006c-0.831,1.621-0.907,3.6-0.013,5.345l36.57,71.27
	c1.002,1.955,3.016,3.185,5.214,3.185c2.198,0,4.212-1.23,5.214-3.185l36.572-71.27l-0.013-0.007c0.83-1.621,0.906-3.6,0.012-5.345
	l-36.57-71.271c-1.002-1.955-3.016-3.185-5.214-3.185C281.752,131.629,279.738,132.86,278.736,134.815z M313.933,208.763
	l-29.984,58.43l-29.984-58.432l29.984-58.433L313.933,208.763z"/>
<path d="M188.937,53.788c-1.537,0-3.049,0.621-4.138,1.711c-1.102,1.102-1.723,2.614-1.723,4.15c0,1.547,0.62,3.06,1.723,4.15
	c1.09,1.09,2.602,1.711,4.138,1.711c1.546,0,3.058-0.621,4.15-1.711c1.09-1.09,1.711-2.602,1.711-4.15
	c0-1.536-0.621-3.048-1.711-4.15C191.996,54.41,190.483,53.788,188.937,53.788z"/>
<path d="M188.937,352.007c-1.547,0-3.049,0.633-4.138,1.723c-1.102,1.09-1.723,2.602-1.723,4.138c0,1.547,0.62,3.06,1.723,4.15
	c1.09,1.09,2.602,1.711,4.138,1.711c1.546,0,3.058-0.621,4.15-1.711c1.09-1.09,1.711-2.602,1.711-4.15
	c0-1.536-0.621-3.048-1.711-4.138C191.996,352.64,190.483,352.007,188.937,352.007z"/>
<path d="M378.958,53.788c-1.547,0-3.048,0.621-4.138,1.711c-1.09,1.09-1.723,2.602-1.723,4.15s0.633,3.06,1.723,4.15
	c1.091,1.09,2.591,1.711,4.138,1.711s3.06-0.621,4.15-1.711c1.09-1.09,1.711-2.602,1.711-4.15c0-1.536-0.621-3.048-1.711-4.15
	C382.017,54.41,380.505,53.788,378.958,53.788z"/>
<path d="M378.958,363.74c1.547,0,3.049-0.633,4.15-1.723c1.09-1.09,1.711-2.602,1.711-4.15c0-1.536-0.621-3.048-1.711-4.138
	c-1.101-1.09-2.602-1.723-4.15-1.723c-1.534,0-3.048,0.633-4.138,1.723c-1.09,1.09-1.723,2.591-1.723,4.138s0.633,3.06,1.723,4.15
	C375.91,363.107,377.422,363.74,378.958,363.74z"/>
<path d="M400.373,250.732c10.734,0,19.466-8.733,19.466-19.469V186.26c0-10.735-8.732-19.469-19.466-19.469
	c-10.735,0-19.47,8.734-19.47,19.469v45.004C380.904,241.999,389.638,250.732,400.373,250.732z M392.626,186.261
	c0-4.272,3.476-7.746,7.747-7.746c4.271,0,7.744,3.475,7.744,7.746v45.004c0,4.272-3.475,7.746-7.744,7.746
	c-4.273,0-7.747-3.475-7.747-7.746V186.261z"/>
<path d="M429.873,0H109.851C91.332,0,76.266,15.067,76.266,33.586v424.128c0,18.519,15.067,33.585,33.586,33.585h49.076v14.841
	c0,2.376,1.435,4.517,3.633,5.42c2.196,0.903,4.722,0.39,6.395-1.298l15.801-15.962l15.801,15.962
	c1.123,1.135,2.632,1.738,4.167,1.738c0.75,0,1.506-0.144,2.227-0.441c2.198-0.904,3.633-3.045,3.633-5.42v-14.841h219.289
	c3.238,0,5.861-2.625,5.861-5.861s-2.623-5.861-5.861-5.861H417.4c-3.063-0.472-5.419-3.119-5.419-6.313v-49.116
	c0-3.526,2.868-6.624,6.395-6.624c0.536,0,11.497,0,11.497,0c3.238,0,5.861-2.625,5.861-5.861V5.861
	C435.734,2.625,433.11,0,429.873,0z M87.988,457.713v-18.327c0-11.558,9.023-21.025,20.392-21.788
	c-5.016,5.869-8.053,13.48-8.053,21.788l0.001,18.327c0,8.31,3.041,15.919,8.058,21.788
	C97.014,478.741,87.988,469.273,87.988,457.713z M109.851,405.801c-8.345,0-15.984,3.067-21.862,8.122V33.586
	c0-12.055,9.807-21.863,21.862-21.863h22.314v394.078H109.851z M198.86,491.885l-9.939-10.041c-1.101-1.112-2.601-1.737-4.166-1.737
	s-3.064,0.626-4.166,1.737l-9.939,10.041V454.41h28.209v37.475H198.86z M401.415,479.576H210.583v-25.165h23.702
	c3.238,0,5.861-2.625,5.861-5.861s-2.623-5.861-5.861-5.861h-92.803c-3.238,0-5.861,2.625-5.861,5.861s2.623,5.861,5.861,5.861
	h17.448v25.165h-25.014c-12.055,0-21.863-9.808-21.863-21.862l-0.001-18.327c0-12.055,9.807-21.862,21.862-21.862h267.619
	c-0.814,2.054-1.272,4.285-1.272,6.624v49.116C400.26,475.487,400.676,477.61,401.415,479.576z M424.012,268.019h-97.052
	l29.034-56.582l-0.014-0.007c0.83-1.622,0.906-3.6,0.012-5.345l-29.034-56.582h97.055L424.012,268.019L424.012,268.019z
	 M289.164,75.85c-1.002-1.955-3.016-3.185-5.214-3.185c-2.198,0-4.212,1.23-5.214,3.185l-66.828,130.237l0.012,0.006
	c-0.83,1.621-0.906,3.6-0.012,5.345l66.828,130.236c1.002,1.955,3.016,3.185,5.214,3.185c2.198,0,4.212-1.23,5.214-3.185
	l31.78-61.933h73.568v94.076H173.387V43.705h221.123v94.077h-73.569L289.164,75.85z M344.19,208.765L283.95,326.16l-60.24-117.398
	l60.24-117.398L344.19,208.765z M424.012,137.782h-17.778V37.843c0-3.237-2.624-5.861-5.861-5.861H167.526
	c-3.238,0-5.861,2.625-5.861,5.861V379.68c0,3.237,2.623,5.861,5.861,5.861h232.846c3.238,0,5.861-2.625,5.861-5.861v-99.937h17.778
	v126.059H143.887V11.722h280.125V137.782z"/>
<g>
</g>
<g>
</g>
<g>
</g>
<g>
</g>
<g>
</g>
<g>
</g>
<g>
</g>
<g>
</g>
<g>
</g>
<g>
</g>
<g>
</g>
<g>
</g>
<g>
</g>
<g>
</g>
<g>
</g>
</svg>
